<svg width="190.000000" height="62.000000" viewBox="0 0 190 62" fill="none" xmlns="http://www.w3.org/2000/svg" xmlns:xlink="http://www.w3.org/1999/xlink">
	<desc>
			Created with Pixso.
	</desc>
	<defs>
		<clipPath id="clip1_21">
			<rect id="simple-icons:eventstore" rx="0.000000" width="49.000000" height="49.000000" transform="translate(0.500000 6.500000)" fill="white" fill-opacity="0"/>
		</clipPath>
	</defs>
	<rect id="simple-icons:eventstore" rx="0.000000" width="49.000000" height="49.000000" transform="translate(0.500000 6.500000)" fill="#FFFFFF" fill-opacity="0"/>
	<g clip-path="url(#clip1_21)">
		<path id="Vector" d="M12.05 13.11C12.94 12.58 13.88 12.12 14.84 11.72C16.85 10.87 18.98 10.33 21.16 10.13L23.51 12.78L22.42 15.53C20.3 15.94 18.27 16.72 16.42 17.84L16.01 18.09L15.64 14.47L12.05 13.1L12.05 13.11ZM11.03 13.75L14.75 15.19L15.15 18.75C13.13 20.23 11.51 22.19 10.43 24.44C10.32 24.65 10.23 24.85 10.14 25.07L7.51 21.88L3.23 22.78C4.3 20.49 5.75 18.41 7.53 16.62C8.6 15.53 9.76 14.58 11.01 13.75L11.03 13.75ZM35.57 38.86C35.98 38.19 36.31 37.5 36.57 36.8L40.61 41.7L47.39 40.23C47 41.31 46.54 42.36 46.01 43.37C44.64 46.04 42.76 48.41 40.5 50.37C38.21 52.36 35.53 53.86 32.64 54.76L32.47 54.82L27.44 50.57L28.75 44.79L28.86 44.75C31.73 43.5 33.98 41.56 35.58 38.84L35.58 38.86L35.57 38.86ZM44.06 16.01C44.48 16.57 44.86 17.17 45.24 17.78C46.77 20.36 47.85 23.18 48.44 26.13C49.01 29.06 49.1 32.02 48.69 34.98C48.48 36.4 48.16 37.79 47.73 39.16L40.95 40.61L36.88 35.7C37.36 33.86 37.4 31.92 37.01 30.06C36.58 27.83 35.53 25.77 33.98 24.12L41.29 23.25L44.01 16L44.06 16.01ZM2.78 23.88L7.16 22.95L9.73 26.1C8.92 28.36 8.73 30.7 9.14 33.14C9.23 33.83 9.39 34.51 9.58 35.16L4.95 34.11L1.64 38.02C1.24 36.28 1.04 34.49 1.05 32.7C1.05 29.68 1.61 26.77 2.73 23.96L2.76 23.87L2.78 23.88ZM9.95 36.24C10.63 38.02 11.62 39.65 12.89 41.07C13.86 42.19 14.95 43.1 16.15 43.81L11.56 46.44L11.81 52.41C10.29 51.46 8.9 50.34 7.65 49.06C5.54 46.91 3.88 44.36 2.77 41.56C2.46 40.78 2.21 40 1.99 39.22L5.4 35.22L10.02 36.28L9.95 36.24ZM17.15 44.36C18.13 44.85 19.19 45.23 20.31 45.48C22.74 46.07 25.28 45.97 27.66 45.19L26.36 50.93L31.33 55.14C28.84 55.79 26.28 56.07 23.71 55.98C19.89 55.87 16.15 54.84 12.81 52.99L12.56 46.98L17.15 44.36ZM43.36 15.09L40.62 22.35L33.09 23.26C32.88 23.06 32.65 22.89 32.41 22.72C30 20.87 27.11 19.73 24.07 19.44C23.35 19.38 22.67 19.38 22.01 19.38L24.63 12.66L18.95 6.19C20.68 6.01 22.36 5.98 24.08 6.01C25.1 6.03 26.11 6.11 27.12 6.24C28.53 6.43 29.93 6.74 31.31 7.12C34.24 7.95 36.91 9.27 39.32 11.14C40.82 12.28 42.18 13.61 43.36 15.09Z" fill="#FA6B1C" fill-opacity="1.000000" fill-rule="nonzero"/>
	</g>
	<path id="MOBILE STORE" d="M140.58 55.75Q141.34 56.09 142.31 56.09Q143.32 56.09 144.06 55.7Q144.76 55.33 145.13 54.75Q145.16 54.72 145.18 54.68Q145.4 54.3 145.5 53.9Q145.56 53.62 145.56 53.34Q145.56 52.41 145.14 51.87Q144.82 51.46 144.4 51.21Q144.27 51.14 144.13 51.07Q143.54 50.81 142.57 50.55Q141.78 50.32 141.34 50.15Q141.01 50.02 140.76 49.8Q140.67 49.73 140.59 49.64Q140.54 49.58 140.49 49.5Q140.29 49.2 140.29 48.77Q140.29 48.27 140.52 47.92Q140.63 47.75 140.8 47.62Q140.84 47.58 140.89 47.54Q141.38 47.2 142.1 47.2Q142.93 47.2 143.44 47.61Q143.45 47.62 143.47 47.63Q143.89 47.98 144.02 48.41Q144.05 48.51 144.06 48.62L145.46 48.62Q145.4 48.01 145.12 47.53Q144.88 47.12 144.47 46.8Q144.42 46.76 144.38 46.73Q143.52 46.11 142.22 46.11Q141.27 46.11 140.53 46.45Q139.95 46.71 139.58 47.15Q139.48 47.27 139.39 47.4Q139.29 47.55 139.22 47.72Q138.99 48.21 138.99 48.81Q138.99 49.72 139.4 50.26Q139.73 50.68 140.16 50.93Q140.27 51 140.39 51.05Q140.98 51.31 141.94 51.56Q142.73 51.77 143.19 51.95Q143.56 52.1 143.84 52.35Q143.9 52.42 143.96 52.48Q144.01 52.53 144.05 52.59Q144.27 52.91 144.27 53.39Q144.27 53.78 144.12 54.08Q143.98 54.35 143.74 54.56Q143.74 54.57 143.73 54.57Q143.21 55.01 142.31 55.01Q141.36 55.01 140.86 54.55Q140.62 54.32 140.48 54.05Q140.33 53.75 140.29 53.39L138.93 53.39Q138.94 53.95 139.16 54.41Q139.25 54.61 139.38 54.8Q139.43 54.86 139.47 54.92Q139.89 55.44 140.58 55.75ZM88.4 55.78Q89.24 56.09 90.2 56.09Q91.22 56.09 92.09 55.75Q92.4 55.62 92.69 55.46Q93.21 55.16 93.62 54.76Q94.11 54.29 94.45 53.68Q94.54 53.53 94.61 53.38Q95.1 52.36 95.1 51.11Q95.1 49.87 94.62 48.86Q94.54 48.69 94.45 48.53Q94.11 47.92 93.62 47.45Q93.2 47.05 92.69 46.76Q92.39 46.59 92.08 46.47Q91.21 46.12 90.2 46.12Q89.25 46.12 88.42 46.44Q88.06 46.57 87.72 46.76Q87.25 47.03 86.86 47.39Q86.33 47.88 85.95 48.54Q85.82 48.76 85.72 49Q85.3 49.96 85.3 51.11Q85.3 52.27 85.73 53.24Q85.83 53.46 85.95 53.68Q86.33 54.34 86.86 54.83Q87.25 55.19 87.72 55.46Q88.05 55.65 88.4 55.78ZM162.11 55.78Q162.95 56.09 163.91 56.09Q164.93 56.09 165.8 55.75Q166.11 55.62 166.4 55.46Q166.92 55.16 167.34 54.76Q167.82 54.29 168.16 53.68Q168.25 53.53 168.32 53.38Q168.81 52.36 168.81 51.11Q168.81 49.87 168.33 48.86Q168.25 48.69 168.16 48.53Q167.82 47.92 167.33 47.45Q166.91 47.05 166.4 46.76Q166.1 46.59 165.79 46.47Q164.92 46.12 163.91 46.12Q162.96 46.12 162.13 46.44Q161.77 46.57 161.43 46.76Q160.96 47.03 160.57 47.39Q160.04 47.88 159.66 48.54Q159.53 48.76 159.43 49Q159.01 49.96 159.01 51.11Q159.01 52.27 159.44 53.24Q159.54 53.46 159.66 53.68Q160.03 54.34 160.57 54.83Q160.96 55.19 161.43 55.46Q161.76 55.65 162.11 55.78ZM125.09 50.54L125.09 47.27L129.06 47.27L129.06 46.22L123.81 46.22L123.81 56L129.06 56L129.06 54.95L125.09 54.95L125.09 51.59L128.65 51.59L128.65 50.54L125.09 50.54ZM184.76 50.54L184.76 47.27L188.73 47.27L188.73 46.22L183.48 46.22L183.48 56L188.73 56L188.73 54.95L184.76 54.95L184.76 51.59L188.31 51.59L188.31 50.54L184.76 50.54ZM104.25 51.05Q104.08 51 103.91 50.97Q104.52 50.77 104.95 50.36Q105.05 50.26 105.14 50.15Q105.22 50.06 105.29 49.95Q105.62 49.44 105.62 48.71Q105.62 48.23 105.45 47.81Q105.37 47.63 105.26 47.46Q105.25 47.43 105.23 47.41Q104.89 46.88 104.21 46.57Q103.51 46.24 102.52 46.24L99.02 46.24L99.02 56L102.66 56Q103.64 56 104.36 55.65Q105.01 55.34 105.38 54.83Q105.42 54.77 105.46 54.71Q105.59 54.51 105.67 54.29Q105.84 53.87 105.84 53.38Q105.84 53.04 105.75 52.72Q105.69 52.49 105.58 52.27Q105.41 51.93 105.16 51.67Q105.03 51.52 104.88 51.4Q104.59 51.17 104.25 51.05ZM111.12 56L111.12 46.24L109.84 46.24L109.84 56L111.12 56ZM120.22 54.96L116.8 54.96L116.8 46.24L115.53 46.24L115.53 56L120.22 56L120.22 54.96ZM155.68 47.27L155.68 46.24L149.07 46.24L149.07 47.27L151.75 47.27L151.75 56L153.02 56L153.02 47.27L155.68 47.27ZM175.55 52.01L177.87 56L179.39 56L176.94 51.91Q177.99 51.68 178.57 51.03Q178.63 50.96 178.69 50.89Q178.91 50.59 179.05 50.25Q179.27 49.72 179.27 49.11Q179.27 48.4 178.99 47.82Q178.94 47.73 178.89 47.64Q178.84 47.55 178.78 47.47Q178.41 46.94 177.75 46.62Q176.99 46.24 175.88 46.24L172.73 46.24L172.73 56L174 56L174 52.01L175.55 52.01ZM81.38 56L81.38 46.31L80.02 46.31L76.44 54.31L72.85 46.31L71.48 46.31L71.48 56L72.76 56L72.76 48.76L75.99 56L76.88 56L80.11 48.77L80.11 56L81.38 56ZM91.68 54.7Q91 54.99 90.2 54.99Q89.41 54.99 88.74 54.7Q88.54 54.62 88.36 54.51Q88.09 54.35 87.86 54.15Q87.38 53.75 87.07 53.15Q86.6 52.27 86.6 51.11Q86.6 49.93 87.07 49.06Q87.39 48.47 87.86 48.06Q88.09 47.86 88.35 47.71Q88.48 47.63 88.62 47.56Q89.33 47.23 90.2 47.23Q91.08 47.23 91.79 47.57Q91.92 47.63 92.05 47.71Q92.31 47.86 92.54 48.06Q93.01 48.47 93.33 49.06Q93.8 49.93 93.8 51.11Q93.8 52.27 93.33 53.15Q93.01 53.75 92.54 54.15Q92.31 54.35 92.04 54.51Q91.86 54.61 91.68 54.7ZM165.39 54.7Q164.71 54.99 163.91 54.99Q163.12 54.99 162.45 54.7Q162.25 54.62 162.07 54.51Q161.8 54.35 161.57 54.15Q161.09 53.75 160.78 53.15Q160.31 52.27 160.31 51.11Q160.31 49.93 160.78 49.06Q161.1 48.47 161.57 48.06Q161.8 47.86 162.06 47.71Q162.2 47.63 162.33 47.56Q163.05 47.23 163.91 47.23Q164.79 47.23 165.5 47.57Q165.63 47.63 165.76 47.71Q166.02 47.86 166.25 48.06Q166.72 48.47 167.04 49.06Q167.51 49.93 167.51 51.11Q167.51 52.27 167.04 53.15Q166.73 53.75 166.25 54.15Q166.02 54.35 165.75 54.51Q165.57 54.61 165.39 54.7ZM102.44 50.45L100.29 50.45L100.29 47.29L102.41 47.29Q103.33 47.29 103.82 47.71Q103.97 47.84 104.08 48Q104.31 48.36 104.31 48.87Q104.31 49.38 104.08 49.74Q103.97 49.9 103.82 50.03Q103.33 50.45 102.44 50.45ZM175.88 50.98L174 50.98L174 47.29L175.88 47.29Q176.93 47.29 177.44 47.76Q177.53 47.85 177.61 47.95Q177.95 48.4 177.95 49.11Q177.95 49.75 177.66 50.2Q177.56 50.35 177.43 50.48Q176.92 50.98 175.88 50.98ZM104.03 54.5Q103.5 54.95 102.55 54.95L100.29 54.95L100.29 51.5L102.51 51.5Q103.42 51.5 103.97 51.95Q103.99 51.96 104 51.97Q104.2 52.14 104.33 52.35Q104.56 52.73 104.56 53.25Q104.56 53.8 104.31 54.19Q104.2 54.36 104.03 54.5Z" fill="#4C4C4C" fill-opacity="1.000000" fill-rule="evenodd"/>
	<path id="DJi" d="M100.79 15.18Q101.26 15.35 101.8 15.34Q102.72 15.28 103.33 14.82Q103.35 14.8 103.37 14.79Q103.78 14.46 104.04 14.04Q104.18 13.83 104.27 13.6Q104.57 12.9 104.57 12.23Q104.57 11.89 104.48 11.59Q104.31 10.96 103.78 10.43Q103.65 10.31 103.51 10.2Q102.77 9.66 101.6 9.71Q101.32 9.72 101.04 9.76Q100.36 9.88 99.72 10.22Q99.41 10.38 99.19 10.63Q98.78 11.09 98.69 11.84Q98.61 12.59 98.98 13.41Q99.14 13.76 99.36 14.06Q99.67 14.48 100.1 14.8Q100.43 15.05 100.79 15.18ZM85.54 18.89Q85.48 17.91 85.33 17.07Q85.25 16.43 84.85 15.52Q84.46 14.6 83.69 13.65Q82.93 12.7 81.68 11.88Q80.43 11.05 78.61 10.58Q78.05 10.43 77.29 10.34Q76.54 10.24 75.84 10.18Q75.14 10.13 74.68 10.11L74.22 10.1Q72.65 10.04 71.15 9.99Q69.65 9.93 68.95 9.9Q68.31 9.85 67.82 9.81Q67.33 9.76 67.19 9.74Q67.14 10.91 67.58 12.14Q67.75 12.59 68.13 13.04Q68.31 13.26 68.42 13.5Q68.53 13.77 68.56 14.08Q68.62 14.6 68.63 15.56Q68.65 16.51 68.65 17.66L68.73 27.15Q68.76 28.02 68.67 28.97Q68.59 29.92 68.45 30.72Q68.31 31.52 68.09 31.91Q68.48 32.13 69.34 32.21Q70.21 32.3 71.19 32.25Q72.17 32.19 72.87 32.05Q73.66 32 74.65 31.95Q75.65 31.91 76.65 31.84Q77.66 31.77 78.41 31.61Q80.41 31.19 81.9 30.1Q82.45 29.7 82.93 29.21Q83.5 28.62 83.93 27.94Q84.85 26.5 85.13 24.66Q85.44 22.64 85.52 21.26Q85.61 19.87 85.54 18.89ZM90 31.89Q90.28 32.04 90.59 32.13Q91.84 32.48 92.95 32.22Q93.11 32.18 93.27 32.13Q94.11 31.87 94.75 31.36Q95.07 31.11 95.34 30.81Q95.82 30.26 96.06 29.61Q96.23 29.16 96.28 28.67Q96.34 28.19 96.36 26.96Q96.39 25.72 96.41 24.07Q96.42 22.42 96.41 20.61Q96.39 18.81 96.36 17.14Q96.34 15.47 96.3 14.21Q96.25 12.96 96.2 12.42Q96.13 11.88 95.86 11.46Q95.66 11.16 95.35 10.93Q94.63 10.38 93.64 10.14Q92.67 9.9 91.78 9.86Q90.9 9.82 90.49 9.9Q90.51 10.1 90.61 11.01Q90.71 11.92 90.83 13.31Q90.96 14.69 91.07 16.33Q91.18 17.97 91.26 19.62Q91.35 21.27 91.37 22.71Q91.38 24.15 91.28 25.14Q91.18 26.12 90.96 26.42Q90.77 26.65 90.55 26.69Q90.45 26.7 90.34 26.68Q90.01 26.59 89.73 26.25Q89.66 26.17 89.59 26.08Q89.4 25.81 89.28 25.5Q88.83 25.89 88.48 26.53Q88.13 27.18 87.95 27.77Q87.77 28.36 87.83 28.6Q87.84 28.66 87.85 28.71Q88.14 29.8 88.8 30.79Q89.31 31.53 90 31.89ZM77.72 25.57Q76.71 26.4 75.56 26.68Q75.28 26.76 74.89 26.69Q74.82 26.68 74.75 26.65Q74.47 26.51 74.35 26.03Q74.24 25.5 74.16 24.73Q74.07 23.96 74.02 23.22Q73.96 22.47 73.95 21.97L73.94 21.47Q73.96 20.93 73.95 20.6Q73.94 20.26 73.96 19.75Q73.99 19.23 74.05 18.17Q74.16 16.54 74.47 15.81Q74.71 15.25 75.08 15.14Q75.19 15.1 75.31 15.11Q76.96 15.13 78.07 15.92Q78.24 16.04 78.4 16.18Q79.59 17.21 79.79 19.87Q79.96 21.91 79.35 23.33Q78.75 24.74 77.72 25.57ZM104.96 29.84Q104.79 29.55 104.77 29.16Q104.68 27.15 104.73 25.06Q104.79 22.98 104.82 21.2Q104.85 19.42 104.71 18.36Q104.64 17.79 104.34 17.39Q104.25 17.27 104.13 17.16Q104.09 17.12 104.05 17.09Q103.59 16.69 102.96 16.5Q102.94 16.49 102.92 16.49Q102.26 16.28 101.54 16.23Q100.82 16.18 100.21 16.22Q99.61 16.26 99.36 16.29L99.37 17Q99.39 17.71 99.4 18.85Q99.41 19.98 99.43 21.3Q99.45 22.62 99.46 23.85Q99.48 25.08 99.49 25.97Q99.5 26.87 99.48 27.18Q99.41 28.97 99.75 30Q100.09 31.02 100.63 31.48Q101.18 31.94 101.74 32.04Q102.3 32.13 102.67 32.1Q103.78 31.97 104.38 31.73Q104.99 31.49 105.3 31.21Q105.61 30.93 105.8 30.68Q105.38 30.37 105.09 30.02Q105.02 29.93 104.96 29.84Z" fill="#FA6B1C" fill-opacity="1.000000" fill-rule="evenodd"/>
</svg>
